<mxfile host="Electron" agent="Mozilla/5.0 (Windows NT 10.0; Win64; x64) AppleWebKit/537.36 (KHTML, like Gecko) draw.io/27.0.5 Chrome/134.0.6998.205 Electron/35.3.0 Safari/537.36" version="27.0.5">
  <diagram id="aNAoFBgYtx0SwfT_OK-K" name="Page-1">
    <mxGraphModel dx="1833" dy="1757" grid="1" gridSize="10" guides="1" tooltips="1" connect="1" arrows="1" fold="1" page="1" pageScale="1" pageWidth="827" pageHeight="1169" math="0" shadow="0">
      <root>
        <mxCell id="0" />
        <mxCell id="1" parent="0" />
        <mxCell id="wwB7rLd3d0XcowF-7yqt-18" value="Extends" style="endArrow=block;endSize=16;endFill=0;html=1;" parent="1" source="wwB7rLd3d0XcowF-7yqt-11" target="wwB7rLd3d0XcowF-7yqt-7" edge="1">
          <mxGeometry width="160" relative="1" as="geometry">
            <mxPoint x="80" y="280" as="sourcePoint" />
            <mxPoint x="240" y="280" as="targetPoint" />
          </mxGeometry>
        </mxCell>
        <mxCell id="wwB7rLd3d0XcowF-7yqt-19" value="Extends" style="endArrow=block;endSize=16;endFill=0;html=1;" parent="1" source="wwB7rLd3d0XcowF-7yqt-15" target="wwB7rLd3d0XcowF-7yqt-7" edge="1">
          <mxGeometry width="160" relative="1" as="geometry">
            <mxPoint x="163.59477124183013" y="320" as="sourcePoint" />
            <mxPoint x="207.51633986928118" y="236" as="targetPoint" />
          </mxGeometry>
        </mxCell>
        <mxCell id="wwB7rLd3d0XcowF-7yqt-26" value="Use" style="endArrow=open;endSize=12;dashed=1;html=1;" parent="1" source="wwB7rLd3d0XcowF-7yqt-7" target="wwB7rLd3d0XcowF-7yqt-20" edge="1">
          <mxGeometry width="160" relative="1" as="geometry">
            <mxPoint x="360" y="260" as="sourcePoint" />
            <mxPoint x="520" y="260" as="targetPoint" />
          </mxGeometry>
        </mxCell>
        <mxCell id="wwB7rLd3d0XcowF-7yqt-29" value="Use" style="endArrow=open;endSize=12;dashed=1;html=1;" parent="1" source="wwB7rLd3d0XcowF-7yqt-38" target="wwB7rLd3d0XcowF-7yqt-30" edge="1">
          <mxGeometry width="160" relative="1" as="geometry">
            <mxPoint x="350" y="580" as="sourcePoint" />
            <mxPoint x="510" y="580" as="targetPoint" />
          </mxGeometry>
        </mxCell>
        <mxCell id="wwB7rLd3d0XcowF-7yqt-48" style="edgeStyle=orthogonalEdgeStyle;rounded=0;orthogonalLoop=1;jettySize=auto;html=1;" parent="1" source="wwB7rLd3d0XcowF-7yqt-16" target="wwB7rLd3d0XcowF-7yqt-50" edge="1">
          <mxGeometry relative="1" as="geometry">
            <mxPoint x="430" y="300" as="targetPoint" />
          </mxGeometry>
        </mxCell>
        <mxCell id="wwB7rLd3d0XcowF-7yqt-50" value="void Ellipse::Draw(ICanvas&amp;amp; canvas)&lt;br&gt;{&lt;br&gt;&amp;nbsp; &amp;nbsp; canvas.DrawEllipse(...);&lt;br&gt;}" style="shape=note;whiteSpace=wrap;html=1;size=14;verticalAlign=middle;align=left;spacingTop=-6;fillColor=#ffff88;strokeColor=#36393d;fontFamily=Lucida Console;" parent="1" vertex="1">
          <mxGeometry x="420" y="284" width="290" height="70" as="geometry" />
        </mxCell>
        <mxCell id="wwB7rLd3d0XcowF-7yqt-51" value="void Rectangle::Draw(ICanvas&amp;amp; canvas)&lt;br&gt;{&lt;br&gt;&amp;nbsp; &amp;nbsp; canvas.DrawPolygon(...);&lt;br&gt;}" style="shape=note;whiteSpace=wrap;html=1;size=14;verticalAlign=middle;align=left;spacingTop=-6;fillColor=#ffff88;strokeColor=#36393d;fontFamily=Lucida Console;" parent="1" vertex="1">
          <mxGeometry x="-310" y="284" width="300" height="70" as="geometry" />
        </mxCell>
        <mxCell id="wwB7rLd3d0XcowF-7yqt-52" style="edgeStyle=orthogonalEdgeStyle;rounded=0;orthogonalLoop=1;jettySize=auto;html=1;" parent="1" source="wwB7rLd3d0XcowF-7yqt-12" target="wwB7rLd3d0XcowF-7yqt-51" edge="1">
          <mxGeometry relative="1" as="geometry" />
        </mxCell>
        <mxCell id="wwB7rLd3d0XcowF-7yqt-38" value="Shape" style="swimlane;fontStyle=1;align=center;verticalAlign=top;childLayout=stackLayout;horizontal=1;startSize=26;horizontalStack=0;resizeParent=1;resizeParentMax=0;resizeLast=0;collapsible=1;marginBottom=0;" parent="1" vertex="1">
          <mxGeometry x="-40" y="530" width="300" height="326" as="geometry" />
        </mxCell>
        <mxCell id="wwB7rLd3d0XcowF-7yqt-83" value="+Shape(drawingStrategy: IDrawingStrategy)" style="text;strokeColor=none;fillColor=none;align=left;verticalAlign=top;spacingLeft=4;spacingRight=4;overflow=hidden;rotatable=0;points=[[0,0.5],[1,0.5]];portConstraint=eastwest;" parent="wwB7rLd3d0XcowF-7yqt-38" vertex="1">
          <mxGeometry y="26" width="300" height="26" as="geometry" />
        </mxCell>
        <mxCell id="wwB7rLd3d0XcowF-7yqt-84" value="" style="line;strokeWidth=1;fillColor=none;align=left;verticalAlign=middle;spacingTop=-1;spacingLeft=3;spacingRight=3;rotatable=0;labelPosition=right;points=[];portConstraint=eastwest;html=1;" parent="wwB7rLd3d0XcowF-7yqt-38" vertex="1">
          <mxGeometry y="52" width="300" height="8" as="geometry" />
        </mxCell>
        <mxCell id="wwB7rLd3d0XcowF-7yqt-39" value="+Draw(canvas: ICanvas)" style="text;strokeColor=none;fillColor=none;align=left;verticalAlign=top;spacingLeft=4;spacingRight=4;overflow=hidden;rotatable=0;points=[[0,0.5],[1,0.5]];portConstraint=eastwest;fontStyle=0" parent="wwB7rLd3d0XcowF-7yqt-38" vertex="1">
          <mxGeometry y="60" width="300" height="26" as="geometry" />
        </mxCell>
        <mxCell id="wwB7rLd3d0XcowF-7yqt-40" value="" style="line;strokeWidth=1;fillColor=none;align=left;verticalAlign=middle;spacingTop=-1;spacingLeft=3;spacingRight=3;rotatable=0;labelPosition=right;points=[];portConstraint=eastwest;" parent="wwB7rLd3d0XcowF-7yqt-38" vertex="1">
          <mxGeometry y="86" width="300" height="8" as="geometry" />
        </mxCell>
        <mxCell id="wwB7rLd3d0XcowF-7yqt-41" value="+GetBounds(): Rect" style="text;strokeColor=none;fillColor=none;align=left;verticalAlign=top;spacingLeft=4;spacingRight=4;overflow=hidden;rotatable=0;points=[[0,0.5],[1,0.5]];portConstraint=eastwest;" parent="wwB7rLd3d0XcowF-7yqt-38" vertex="1">
          <mxGeometry y="94" width="300" height="26" as="geometry" />
        </mxCell>
        <mxCell id="wwB7rLd3d0XcowF-7yqt-64" value="+SetBounds(bounds: Rect)" style="text;strokeColor=none;fillColor=none;align=left;verticalAlign=top;spacingLeft=4;spacingRight=4;overflow=hidden;rotatable=0;points=[[0,0.5],[1,0.5]];portConstraint=eastwest;" parent="wwB7rLd3d0XcowF-7yqt-38" vertex="1">
          <mxGeometry y="120" width="300" height="26" as="geometry" />
        </mxCell>
        <mxCell id="wwB7rLd3d0XcowF-7yqt-43" value="" style="line;strokeWidth=1;fillColor=none;align=left;verticalAlign=middle;spacingTop=-1;spacingLeft=3;spacingRight=3;rotatable=0;labelPosition=right;points=[];portConstraint=eastwest;" parent="wwB7rLd3d0XcowF-7yqt-38" vertex="1">
          <mxGeometry y="146" width="300" height="8" as="geometry" />
        </mxCell>
        <mxCell id="wwB7rLd3d0XcowF-7yqt-65" value="+GetColor(): Color" style="text;strokeColor=none;fillColor=none;align=left;verticalAlign=top;spacingLeft=4;spacingRight=4;overflow=hidden;rotatable=0;points=[[0,0.5],[1,0.5]];portConstraint=eastwest;" parent="wwB7rLd3d0XcowF-7yqt-38" vertex="1">
          <mxGeometry y="154" width="300" height="26" as="geometry" />
        </mxCell>
        <mxCell id="wwB7rLd3d0XcowF-7yqt-66" value="+SetColor(newColor: Color)" style="text;strokeColor=none;fillColor=none;align=left;verticalAlign=top;spacingLeft=4;spacingRight=4;overflow=hidden;rotatable=0;points=[[0,0.5],[1,0.5]];portConstraint=eastwest;" parent="wwB7rLd3d0XcowF-7yqt-38" vertex="1">
          <mxGeometry y="180" width="300" height="26" as="geometry" />
        </mxCell>
        <mxCell id="wwB7rLd3d0XcowF-7yqt-67" value="" style="line;strokeWidth=1;fillColor=none;align=left;verticalAlign=middle;spacingTop=-1;spacingLeft=3;spacingRight=3;rotatable=0;labelPosition=right;points=[];portConstraint=eastwest;html=1;" parent="wwB7rLd3d0XcowF-7yqt-38" vertex="1">
          <mxGeometry y="206" width="300" height="8" as="geometry" />
        </mxCell>
        <mxCell id="wwB7rLd3d0XcowF-7yqt-42" value="+SetDrawingStrategy(strategy: IDrawingStrategy)" style="text;strokeColor=#82b366;fillColor=#d5e8d4;align=left;verticalAlign=top;spacingLeft=4;spacingRight=4;overflow=hidden;rotatable=0;points=[[0,0.5],[1,0.5]];portConstraint=eastwest;" parent="wwB7rLd3d0XcowF-7yqt-38" vertex="1">
          <mxGeometry y="214" width="300" height="26" as="geometry" />
        </mxCell>
        <mxCell id="wwB7rLd3d0XcowF-7yqt-44" value="" style="line;strokeWidth=1;fillColor=none;align=left;verticalAlign=middle;spacingTop=-1;spacingLeft=3;spacingRight=3;rotatable=0;labelPosition=right;points=[];portConstraint=eastwest;html=1;" parent="wwB7rLd3d0XcowF-7yqt-38" vertex="1">
          <mxGeometry y="240" width="300" height="8" as="geometry" />
        </mxCell>
        <mxCell id="wwB7rLd3d0XcowF-7yqt-58" value="- m_bounds: Rect" style="text;strokeColor=none;fillColor=none;align=left;verticalAlign=top;spacingLeft=4;spacingRight=4;overflow=hidden;rotatable=0;points=[[0,0.5],[1,0.5]];portConstraint=eastwest;" parent="wwB7rLd3d0XcowF-7yqt-38" vertex="1">
          <mxGeometry y="248" width="300" height="26" as="geometry" />
        </mxCell>
        <mxCell id="wwB7rLd3d0XcowF-7yqt-45" value="- m_drawingStrategy: IDrawingStrategy" style="text;strokeColor=#82b366;fillColor=#d5e8d4;align=left;verticalAlign=top;spacingLeft=4;spacingRight=4;overflow=hidden;rotatable=0;points=[[0,0.5],[1,0.5]];portConstraint=eastwest;" parent="wwB7rLd3d0XcowF-7yqt-38" vertex="1">
          <mxGeometry y="274" width="300" height="26" as="geometry" />
        </mxCell>
        <mxCell id="wwB7rLd3d0XcowF-7yqt-77" value="- m_color: Color" style="text;strokeColor=none;fillColor=none;align=left;verticalAlign=top;spacingLeft=4;spacingRight=4;overflow=hidden;rotatable=0;points=[[0,0.5],[1,0.5]];portConstraint=eastwest;" parent="wwB7rLd3d0XcowF-7yqt-38" vertex="1">
          <mxGeometry y="300" width="300" height="26" as="geometry" />
        </mxCell>
        <mxCell id="wwB7rLd3d0XcowF-7yqt-20" value="&lt;i&gt;&lt;span style=&quot;font-weight: normal&quot;&gt;&amp;lt;&amp;lt;interface&amp;gt;&amp;gt;&lt;/span&gt;&lt;br&gt;ICanvas&lt;/i&gt;" style="swimlane;fontStyle=1;align=center;verticalAlign=top;childLayout=stackLayout;horizontal=1;startSize=41;horizontalStack=0;resizeParent=1;resizeParentMax=0;resizeLast=0;collapsible=1;marginBottom=0;html=1;" parent="1" vertex="1">
          <mxGeometry x="440" y="123" width="160" height="119" as="geometry" />
        </mxCell>
        <mxCell id="wwB7rLd3d0XcowF-7yqt-21" value="+DrawEllipse(...)" style="text;strokeColor=none;fillColor=none;align=left;verticalAlign=top;spacingLeft=4;spacingRight=4;overflow=hidden;rotatable=0;points=[[0,0.5],[1,0.5]];portConstraint=eastwest;fontStyle=2" parent="wwB7rLd3d0XcowF-7yqt-20" vertex="1">
          <mxGeometry y="41" width="160" height="26" as="geometry" />
        </mxCell>
        <mxCell id="wwB7rLd3d0XcowF-7yqt-24" value="+DrawPolygon(...)" style="text;strokeColor=none;fillColor=none;align=left;verticalAlign=top;spacingLeft=4;spacingRight=4;overflow=hidden;rotatable=0;points=[[0,0.5],[1,0.5]];portConstraint=eastwest;fontStyle=2" parent="wwB7rLd3d0XcowF-7yqt-20" vertex="1">
          <mxGeometry y="67" width="160" height="26" as="geometry" />
        </mxCell>
        <mxCell id="wwB7rLd3d0XcowF-7yqt-25" value="..." style="text;strokeColor=none;fillColor=none;align=left;verticalAlign=top;spacingLeft=4;spacingRight=4;overflow=hidden;rotatable=0;points=[[0,0.5],[1,0.5]];portConstraint=eastwest;fontStyle=2" parent="wwB7rLd3d0XcowF-7yqt-20" vertex="1">
          <mxGeometry y="93" width="160" height="26" as="geometry" />
        </mxCell>
        <mxCell id="wwB7rLd3d0XcowF-7yqt-7" value="Shape" style="swimlane;fontStyle=1;align=center;verticalAlign=top;childLayout=stackLayout;horizontal=1;startSize=26;horizontalStack=0;resizeParent=1;resizeParentMax=0;resizeLast=0;collapsible=1;marginBottom=0;" parent="1" vertex="1">
          <mxGeometry x="30" y="20" width="160" height="232" as="geometry" />
        </mxCell>
        <mxCell id="wwB7rLd3d0XcowF-7yqt-8" value="+Draw(canvas: ICanvas)" style="text;strokeColor=none;fillColor=none;align=left;verticalAlign=top;spacingLeft=4;spacingRight=4;overflow=hidden;rotatable=0;points=[[0,0.5],[1,0.5]];portConstraint=eastwest;fontStyle=2" parent="wwB7rLd3d0XcowF-7yqt-7" vertex="1">
          <mxGeometry y="26" width="160" height="26" as="geometry" />
        </mxCell>
        <mxCell id="wwB7rLd3d0XcowF-7yqt-9" value="" style="line;strokeWidth=1;fillColor=none;align=left;verticalAlign=middle;spacingTop=-1;spacingLeft=3;spacingRight=3;rotatable=0;labelPosition=right;points=[];portConstraint=eastwest;" parent="wwB7rLd3d0XcowF-7yqt-7" vertex="1">
          <mxGeometry y="52" width="160" height="8" as="geometry" />
        </mxCell>
        <mxCell id="wwB7rLd3d0XcowF-7yqt-10" value="+GetBounds(): Rect" style="text;strokeColor=none;fillColor=none;align=left;verticalAlign=top;spacingLeft=4;spacingRight=4;overflow=hidden;rotatable=0;points=[[0,0.5],[1,0.5]];portConstraint=eastwest;" parent="wwB7rLd3d0XcowF-7yqt-7" vertex="1">
          <mxGeometry y="60" width="160" height="26" as="geometry" />
        </mxCell>
        <mxCell id="wwB7rLd3d0XcowF-7yqt-59" value="+SetBounds(bounds: Rect)" style="text;strokeColor=none;fillColor=none;align=left;verticalAlign=top;spacingLeft=4;spacingRight=4;overflow=hidden;rotatable=0;points=[[0,0.5],[1,0.5]];portConstraint=eastwest;" parent="wwB7rLd3d0XcowF-7yqt-7" vertex="1">
          <mxGeometry y="86" width="160" height="26" as="geometry" />
        </mxCell>
        <mxCell id="wwB7rLd3d0XcowF-7yqt-68" value="" style="line;strokeWidth=1;fillColor=none;align=left;verticalAlign=middle;spacingTop=-1;spacingLeft=3;spacingRight=3;rotatable=0;labelPosition=right;points=[];portConstraint=eastwest;html=1;" parent="wwB7rLd3d0XcowF-7yqt-7" vertex="1">
          <mxGeometry y="112" width="160" height="8" as="geometry" />
        </mxCell>
        <mxCell id="wwB7rLd3d0XcowF-7yqt-60" value="+GetColor(): Color" style="text;strokeColor=none;fillColor=none;align=left;verticalAlign=top;spacingLeft=4;spacingRight=4;overflow=hidden;rotatable=0;points=[[0,0.5],[1,0.5]];portConstraint=eastwest;" parent="wwB7rLd3d0XcowF-7yqt-7" vertex="1">
          <mxGeometry y="120" width="160" height="26" as="geometry" />
        </mxCell>
        <mxCell id="wwB7rLd3d0XcowF-7yqt-63" value="+SetColor(newColor: Color)" style="text;strokeColor=none;fillColor=none;align=left;verticalAlign=top;spacingLeft=4;spacingRight=4;overflow=hidden;rotatable=0;points=[[0,0.5],[1,0.5]];portConstraint=eastwest;" parent="wwB7rLd3d0XcowF-7yqt-7" vertex="1">
          <mxGeometry y="146" width="160" height="26" as="geometry" />
        </mxCell>
        <mxCell id="wwB7rLd3d0XcowF-7yqt-47" value="" style="line;strokeWidth=1;fillColor=none;align=left;verticalAlign=middle;spacingTop=-1;spacingLeft=3;spacingRight=3;rotatable=0;labelPosition=right;points=[];portConstraint=eastwest;html=1;" parent="wwB7rLd3d0XcowF-7yqt-7" vertex="1">
          <mxGeometry y="172" width="160" height="8" as="geometry" />
        </mxCell>
        <mxCell id="wwB7rLd3d0XcowF-7yqt-46" value="- m_bounds: Rect" style="text;strokeColor=none;fillColor=none;align=left;verticalAlign=top;spacingLeft=4;spacingRight=4;overflow=hidden;rotatable=0;points=[[0,0.5],[1,0.5]];portConstraint=eastwest;" parent="wwB7rLd3d0XcowF-7yqt-7" vertex="1">
          <mxGeometry y="180" width="160" height="26" as="geometry" />
        </mxCell>
        <mxCell id="wwB7rLd3d0XcowF-7yqt-62" value="- m_color: Color" style="text;strokeColor=none;fillColor=none;align=left;verticalAlign=top;spacingLeft=4;spacingRight=4;overflow=hidden;rotatable=0;points=[[0,0.5],[1,0.5]];portConstraint=eastwest;" parent="wwB7rLd3d0XcowF-7yqt-7" vertex="1">
          <mxGeometry y="206" width="160" height="26" as="geometry" />
        </mxCell>
        <mxCell id="wwB7rLd3d0XcowF-7yqt-90" value="Use" style="endArrow=open;endSize=12;dashed=1;html=1;" parent="1" source="wwB7rLd3d0XcowF-7yqt-15" target="wwB7rLd3d0XcowF-7yqt-20" edge="1">
          <mxGeometry width="160" relative="1" as="geometry">
            <mxPoint x="290" y="130.22222222222229" as="sourcePoint" />
            <mxPoint x="490" y="115.77777777777783" as="targetPoint" />
          </mxGeometry>
        </mxCell>
        <mxCell id="wwB7rLd3d0XcowF-7yqt-91" value="Use" style="endArrow=open;endSize=12;dashed=1;html=1;" parent="1" source="wwB7rLd3d0XcowF-7yqt-11" target="wwB7rLd3d0XcowF-7yqt-20" edge="1">
          <mxGeometry width="160" relative="1" as="geometry">
            <mxPoint x="321.87969924812023" y="350" as="sourcePoint" />
            <mxPoint x="508.48684210526335" y="169.5" as="targetPoint" />
          </mxGeometry>
        </mxCell>
        <mxCell id="wwB7rLd3d0XcowF-7yqt-11" value="Rectangle" style="swimlane;fontStyle=1;align=center;verticalAlign=top;childLayout=stackLayout;horizontal=1;startSize=26;horizontalStack=0;resizeParent=1;resizeParentMax=0;resizeLast=0;collapsible=1;marginBottom=0;" parent="1" vertex="1">
          <mxGeometry x="20" y="350" width="120" height="52" as="geometry" />
        </mxCell>
        <mxCell id="wwB7rLd3d0XcowF-7yqt-12" value="+Draw(canvas)" style="text;strokeColor=none;fillColor=none;align=left;verticalAlign=top;spacingLeft=4;spacingRight=4;overflow=hidden;rotatable=0;points=[[0,0.5],[1,0.5]];portConstraint=eastwest;" parent="wwB7rLd3d0XcowF-7yqt-11" vertex="1">
          <mxGeometry y="26" width="120" height="26" as="geometry" />
        </mxCell>
        <mxCell id="wwB7rLd3d0XcowF-7yqt-15" value="Ellipse" style="swimlane;fontStyle=1;align=center;verticalAlign=top;childLayout=stackLayout;horizontal=1;startSize=26;horizontalStack=0;resizeParent=1;resizeParentMax=0;resizeLast=0;collapsible=1;marginBottom=0;" parent="1" vertex="1">
          <mxGeometry x="190" y="350" width="110" height="52" as="geometry" />
        </mxCell>
        <mxCell id="wwB7rLd3d0XcowF-7yqt-16" value="+Draw(canvas)" style="text;strokeColor=none;fillColor=none;align=left;verticalAlign=top;spacingLeft=4;spacingRight=4;overflow=hidden;rotatable=0;points=[[0,0.5],[1,0.5]];portConstraint=eastwest;" parent="wwB7rLd3d0XcowF-7yqt-15" vertex="1">
          <mxGeometry y="26" width="110" height="26" as="geometry" />
        </mxCell>
        <mxCell id="wwB7rLd3d0XcowF-7yqt-92" value="Use" style="endArrow=open;endSize=12;dashed=1;html=1;" parent="1" source="MGJPy2t_8Esak-aXlX0G-25" target="wwB7rLd3d0XcowF-7yqt-30" edge="1">
          <mxGeometry width="160" relative="1" as="geometry">
            <mxPoint x="537.9289940828403" y="720" as="sourcePoint" />
            <mxPoint x="380" y="940" as="targetPoint" />
          </mxGeometry>
        </mxCell>
        <mxCell id="wwB7rLd3d0XcowF-7yqt-98" style="edgeStyle=orthogonalEdgeStyle;rounded=0;orthogonalLoop=1;jettySize=auto;html=1;entryX=0;entryY=0.5;entryDx=0;entryDy=0;entryPerimeter=0;" parent="1" source="wwB7rLd3d0XcowF-7yqt-39" target="wwB7rLd3d0XcowF-7yqt-99" edge="1">
          <mxGeometry relative="1" as="geometry">
            <mxPoint x="-120" y="920" as="targetPoint" />
          </mxGeometry>
        </mxCell>
        <mxCell id="wwB7rLd3d0XcowF-7yqt-99" value="void Draw(ICanvas&amp;amp; canvas)&lt;br&gt;{&lt;br&gt;&amp;nbsp; &amp;nbsp; m_drawingStrategy-&amp;gt;Draw(canvas, m_bounds, m_color);&lt;br&gt;}" style="shape=note;whiteSpace=wrap;html=1;size=14;verticalAlign=middle;align=left;spacingTop=-6;fillColor=#ffff88;strokeColor=#36393d;fontFamily=Lucida Console;" parent="1" vertex="1">
          <mxGeometry x="-280" y="900" width="410" height="70" as="geometry" />
        </mxCell>
        <mxCell id="wwB7rLd3d0XcowF-7yqt-106" value="" style="endArrow=block;dashed=1;endFill=0;endSize=12;html=1;" parent="1" source="wwB7rLd3d0XcowF-7yqt-104" target="wwB7rLd3d0XcowF-7yqt-102" edge="1">
          <mxGeometry width="160" relative="1" as="geometry">
            <mxPoint x="760" y="716" as="sourcePoint" />
            <mxPoint x="920" y="716" as="targetPoint" />
          </mxGeometry>
        </mxCell>
        <mxCell id="wwB7rLd3d0XcowF-7yqt-107" value="" style="endArrow=block;dashed=1;endFill=0;endSize=12;html=1;" parent="1" source="wwB7rLd3d0XcowF-7yqt-100" target="wwB7rLd3d0XcowF-7yqt-102" edge="1">
          <mxGeometry width="160" relative="1" as="geometry">
            <mxPoint x="1174.6666666666665" y="736" as="sourcePoint" />
            <mxPoint x="1285.3333333333335" y="653" as="targetPoint" />
          </mxGeometry>
        </mxCell>
        <mxCell id="wwB7rLd3d0XcowF-7yqt-108" style="edgeStyle=orthogonalEdgeStyle;rounded=0;orthogonalLoop=1;jettySize=auto;html=1;" parent="1" source="wwB7rLd3d0XcowF-7yqt-101" target="wwB7rLd3d0XcowF-7yqt-111" edge="1">
          <mxGeometry relative="1" as="geometry" />
        </mxCell>
        <mxCell id="wwB7rLd3d0XcowF-7yqt-109" style="edgeStyle=orthogonalEdgeStyle;rounded=0;orthogonalLoop=1;jettySize=auto;html=1;" parent="1" source="wwB7rLd3d0XcowF-7yqt-105" target="wwB7rLd3d0XcowF-7yqt-110" edge="1">
          <mxGeometry relative="1" as="geometry">
            <Array as="points">
              <mxPoint x="980" y="725" />
              <mxPoint x="980" y="767" />
              <mxPoint x="1080" y="767" />
            </Array>
          </mxGeometry>
        </mxCell>
        <mxCell id="wwB7rLd3d0XcowF-7yqt-110" value="void Draw(ICanvas&amp;amp; canvas, const IVisualObjectInfo&amp;amp; objInfo)&lt;br&gt;{&lt;br&gt;&amp;nbsp; &amp;nbsp; canvas.DrawPolygon(...);&lt;br&gt;}" style="shape=note;whiteSpace=wrap;html=1;size=14;verticalAlign=top;align=left;spacingTop=-6;" parent="1" vertex="1">
          <mxGeometry x="900" y="796" width="360" height="70" as="geometry" />
        </mxCell>
        <mxCell id="wwB7rLd3d0XcowF-7yqt-111" value="void Draw(ICanvas&amp;amp; canvas, const IVisualObjectInfo&amp;amp; objInfo)&lt;br&gt;{&lt;br&gt;&amp;nbsp; &amp;nbsp; canvas.DrawEllipse(...);&lt;br&gt;}" style="shape=note;whiteSpace=wrap;html=1;size=14;verticalAlign=top;align=left;spacingTop=-6;" parent="1" vertex="1">
          <mxGeometry x="1280" y="796" width="360" height="70" as="geometry" />
        </mxCell>
        <mxCell id="wwB7rLd3d0XcowF-7yqt-115" value="Use" style="endArrow=open;endSize=12;dashed=1;html=1;" parent="1" source="wwB7rLd3d0XcowF-7yqt-102" target="wwB7rLd3d0XcowF-7yqt-112" edge="1">
          <mxGeometry width="160" relative="1" as="geometry">
            <mxPoint x="1400" y="586" as="sourcePoint" />
            <mxPoint x="1560" y="586" as="targetPoint" />
          </mxGeometry>
        </mxCell>
        <mxCell id="wwB7rLd3d0XcowF-7yqt-100" value="EllipseDrawingStrategy" style="swimlane;fontStyle=1;align=center;verticalAlign=top;childLayout=stackLayout;horizontal=1;startSize=26;horizontalStack=0;resizeParent=1;resizeParentMax=0;resizeLast=0;collapsible=1;marginBottom=0;html=1;" parent="1" vertex="1">
          <mxGeometry x="1307" y="686" width="280" height="52" as="geometry" />
        </mxCell>
        <mxCell id="wwB7rLd3d0XcowF-7yqt-101" value="+Draw(canvas:ICanvas, objInfo: IVisualObjectInfo)" style="text;align=left;verticalAlign=top;spacingLeft=4;spacingRight=4;overflow=hidden;rotatable=0;points=[[0,0.5],[1,0.5]];portConstraint=eastwest;fontStyle=0" parent="wwB7rLd3d0XcowF-7yqt-100" vertex="1">
          <mxGeometry y="26" width="280" height="26" as="geometry" />
        </mxCell>
        <mxCell id="wwB7rLd3d0XcowF-7yqt-102" value="&lt;i&gt;&lt;span style=&quot;font-weight: normal&quot;&gt;&amp;lt;&amp;lt;interface&amp;gt;&amp;gt;&lt;/span&gt;&lt;br&gt;IDrawingStrategy&lt;/i&gt;" style="swimlane;fontStyle=1;align=center;verticalAlign=top;childLayout=stackLayout;horizontal=1;startSize=41;horizontalStack=0;resizeParent=1;resizeParentMax=0;resizeLast=0;collapsible=1;marginBottom=0;html=1;" parent="1" vertex="1">
          <mxGeometry x="1130" y="566" width="300" height="67" as="geometry" />
        </mxCell>
        <mxCell id="wwB7rLd3d0XcowF-7yqt-103" value="+Draw(canvas:ICanvas, objInfo: IVisualObjectInfo)" style="text;align=left;verticalAlign=top;spacingLeft=4;spacingRight=4;overflow=hidden;rotatable=0;points=[[0,0.5],[1,0.5]];portConstraint=eastwest;fontStyle=2" parent="wwB7rLd3d0XcowF-7yqt-102" vertex="1">
          <mxGeometry y="41" width="300" height="26" as="geometry" />
        </mxCell>
        <mxCell id="wwB7rLd3d0XcowF-7yqt-104" value="RectangleDrawingStrategy" style="swimlane;fontStyle=1;align=center;verticalAlign=top;childLayout=stackLayout;horizontal=1;startSize=26;horizontalStack=0;resizeParent=1;resizeParentMax=0;resizeLast=0;collapsible=1;marginBottom=0;html=1;" parent="1" vertex="1">
          <mxGeometry x="1000" y="686" width="280" height="52" as="geometry" />
        </mxCell>
        <mxCell id="wwB7rLd3d0XcowF-7yqt-105" value="+Draw(canvas:ICanvas, objInfo: IVisualObjectInfo)" style="text;align=left;verticalAlign=top;spacingLeft=4;spacingRight=4;overflow=hidden;rotatable=0;points=[[0,0.5],[1,0.5]];portConstraint=eastwest;fontStyle=0" parent="wwB7rLd3d0XcowF-7yqt-104" vertex="1">
          <mxGeometry y="26" width="280" height="26" as="geometry" />
        </mxCell>
        <mxCell id="wwB7rLd3d0XcowF-7yqt-112" value="&lt;i&gt;&lt;span style=&quot;font-weight: normal&quot;&gt;&amp;lt;&amp;lt;interface&amp;gt;&amp;gt;&lt;/span&gt;&lt;br&gt;IVisualObjectInfo&lt;/i&gt;" style="swimlane;fontStyle=1;align=center;verticalAlign=top;childLayout=stackLayout;horizontal=1;startSize=41;horizontalStack=0;resizeParent=1;resizeParentMax=0;resizeLast=0;collapsible=1;marginBottom=0;html=1;" parent="1" vertex="1">
          <mxGeometry x="1560" y="540" width="160" height="93" as="geometry" />
        </mxCell>
        <mxCell id="wwB7rLd3d0XcowF-7yqt-113" value="+GetBounds(): Rect" style="text;align=left;verticalAlign=top;spacingLeft=4;spacingRight=4;overflow=hidden;rotatable=0;points=[[0,0.5],[1,0.5]];portConstraint=eastwest;fontStyle=2" parent="wwB7rLd3d0XcowF-7yqt-112" vertex="1">
          <mxGeometry y="41" width="160" height="26" as="geometry" />
        </mxCell>
        <mxCell id="wwB7rLd3d0XcowF-7yqt-114" value="+GetColor(): Color" style="text;align=left;verticalAlign=top;spacingLeft=4;spacingRight=4;overflow=hidden;rotatable=0;points=[[0,0.5],[1,0.5]];portConstraint=eastwest;fontStyle=2" parent="wwB7rLd3d0XcowF-7yqt-112" vertex="1">
          <mxGeometry y="67" width="160" height="26" as="geometry" />
        </mxCell>
        <mxCell id="wwB7rLd3d0XcowF-7yqt-30" value="&lt;i&gt;&lt;span style=&quot;font-weight: normal&quot;&gt;&amp;lt;&amp;lt;interface&amp;gt;&amp;gt;&lt;/span&gt;&lt;br&gt;ICanvas&lt;/i&gt;" style="swimlane;fontStyle=1;align=center;verticalAlign=top;childLayout=stackLayout;horizontal=1;startSize=41;horizontalStack=0;resizeParent=1;resizeParentMax=0;resizeLast=0;collapsible=1;marginBottom=0;html=1;" parent="1" vertex="1">
          <mxGeometry x="490" y="525" width="160" height="119" as="geometry" />
        </mxCell>
        <mxCell id="wwB7rLd3d0XcowF-7yqt-31" value="+DrawEllipse(...)" style="text;strokeColor=none;fillColor=none;align=left;verticalAlign=top;spacingLeft=4;spacingRight=4;overflow=hidden;rotatable=0;points=[[0,0.5],[1,0.5]];portConstraint=eastwest;fontStyle=2" parent="wwB7rLd3d0XcowF-7yqt-30" vertex="1">
          <mxGeometry y="41" width="160" height="26" as="geometry" />
        </mxCell>
        <mxCell id="wwB7rLd3d0XcowF-7yqt-32" value="+DrawPolygon(...)" style="text;strokeColor=none;fillColor=none;align=left;verticalAlign=top;spacingLeft=4;spacingRight=4;overflow=hidden;rotatable=0;points=[[0,0.5],[1,0.5]];portConstraint=eastwest;fontStyle=2" parent="wwB7rLd3d0XcowF-7yqt-30" vertex="1">
          <mxGeometry y="67" width="160" height="26" as="geometry" />
        </mxCell>
        <mxCell id="wwB7rLd3d0XcowF-7yqt-33" value="..." style="text;strokeColor=none;fillColor=none;align=left;verticalAlign=top;spacingLeft=4;spacingRight=4;overflow=hidden;rotatable=0;points=[[0,0.5],[1,0.5]];portConstraint=eastwest;fontStyle=2" parent="wwB7rLd3d0XcowF-7yqt-30" vertex="1">
          <mxGeometry y="93" width="160" height="26" as="geometry" />
        </mxCell>
        <mxCell id="MGJPy2t_8Esak-aXlX0G-1" value="" style="endArrow=block;dashed=1;endFill=0;endSize=12;html=1;" parent="1" source="MGJPy2t_8Esak-aXlX0G-12" target="MGJPy2t_8Esak-aXlX0G-10" edge="1">
          <mxGeometry width="160" relative="1" as="geometry">
            <mxPoint x="750" y="1156" as="sourcePoint" />
            <mxPoint x="910" y="1156" as="targetPoint" />
          </mxGeometry>
        </mxCell>
        <mxCell id="MGJPy2t_8Esak-aXlX0G-2" value="" style="endArrow=block;dashed=1;endFill=0;endSize=12;html=1;" parent="1" source="MGJPy2t_8Esak-aXlX0G-8" target="MGJPy2t_8Esak-aXlX0G-10" edge="1">
          <mxGeometry width="160" relative="1" as="geometry">
            <mxPoint x="1164.6666666666665" y="1176" as="sourcePoint" />
            <mxPoint x="1275.3333333333335" y="1093" as="targetPoint" />
          </mxGeometry>
        </mxCell>
        <mxCell id="MGJPy2t_8Esak-aXlX0G-3" style="edgeStyle=orthogonalEdgeStyle;rounded=0;orthogonalLoop=1;jettySize=auto;html=1;" parent="1" source="MGJPy2t_8Esak-aXlX0G-9" target="MGJPy2t_8Esak-aXlX0G-6" edge="1">
          <mxGeometry relative="1" as="geometry" />
        </mxCell>
        <mxCell id="MGJPy2t_8Esak-aXlX0G-4" style="edgeStyle=orthogonalEdgeStyle;rounded=0;orthogonalLoop=1;jettySize=auto;html=1;" parent="1" source="MGJPy2t_8Esak-aXlX0G-13" target="MGJPy2t_8Esak-aXlX0G-5" edge="1">
          <mxGeometry relative="1" as="geometry">
            <Array as="points">
              <mxPoint x="970" y="1165" />
              <mxPoint x="970" y="1207" />
              <mxPoint x="1070" y="1207" />
            </Array>
          </mxGeometry>
        </mxCell>
        <mxCell id="MGJPy2t_8Esak-aXlX0G-5" value="void Draw(ICanvas&amp;amp; canvas, Rect bounds, Color color)&lt;br&gt;{&lt;br&gt;&amp;nbsp; &amp;nbsp; canvas.DrawPolygon(...);&lt;br&gt;}" style="shape=note;whiteSpace=wrap;html=1;size=14;verticalAlign=middle;align=left;spacingTop=-6;fontFamily=Lucida Console;fillColor=#ffff88;strokeColor=#36393d;" parent="1" vertex="1">
          <mxGeometry x="840" y="1236" width="410" height="70" as="geometry" />
        </mxCell>
        <mxCell id="MGJPy2t_8Esak-aXlX0G-6" value="void Draw(ICanvas&amp;amp; canvas, Rect bounds, Color color)&lt;br&gt;{&lt;br&gt;&amp;nbsp; &amp;nbsp; canvas.DrawEllipse(...);&lt;br&gt;}" style="shape=note;whiteSpace=wrap;html=1;size=14;verticalAlign=middle;align=left;spacingTop=-6;fontFamily=Lucida Console;fillColor=#ffff88;strokeColor=#36393d;" parent="1" vertex="1">
          <mxGeometry x="1270" y="1236" width="420" height="70" as="geometry" />
        </mxCell>
        <mxCell id="MGJPy2t_8Esak-aXlX0G-8" value="EllipseDrawingStrategy" style="swimlane;fontStyle=1;align=center;verticalAlign=top;childLayout=stackLayout;horizontal=1;startSize=26;horizontalStack=0;resizeParent=1;resizeParentMax=0;resizeLast=0;collapsible=1;marginBottom=0;html=1;" parent="1" vertex="1">
          <mxGeometry x="1297" y="1126" width="303" height="52" as="geometry" />
        </mxCell>
        <mxCell id="MGJPy2t_8Esak-aXlX0G-9" value="+Draw(canvas:ICanvas, bounds: Rect, color: Color)" style="text;align=left;verticalAlign=top;spacingLeft=4;spacingRight=4;overflow=hidden;rotatable=0;points=[[0,0.5],[1,0.5]];portConstraint=eastwest;fontStyle=0" parent="MGJPy2t_8Esak-aXlX0G-8" vertex="1">
          <mxGeometry y="26" width="303" height="26" as="geometry" />
        </mxCell>
        <mxCell id="MGJPy2t_8Esak-aXlX0G-10" value="&lt;i&gt;&lt;span style=&quot;font-weight: normal&quot;&gt;&amp;lt;&amp;lt;interface&amp;gt;&amp;gt;&lt;/span&gt;&lt;br&gt;IDrawingStrategy&lt;/i&gt;" style="swimlane;fontStyle=1;align=center;verticalAlign=top;childLayout=stackLayout;horizontal=1;startSize=41;horizontalStack=0;resizeParent=1;resizeParentMax=0;resizeLast=0;collapsible=1;marginBottom=0;html=1;" parent="1" vertex="1">
          <mxGeometry x="1120" y="1006" width="300" height="67" as="geometry" />
        </mxCell>
        <mxCell id="MGJPy2t_8Esak-aXlX0G-11" value="+Draw(canvas:ICanvas, bounds:Rect, color: Color)" style="text;align=left;verticalAlign=top;spacingLeft=4;spacingRight=4;overflow=hidden;rotatable=0;points=[[0,0.5],[1,0.5]];portConstraint=eastwest;fontStyle=2" parent="MGJPy2t_8Esak-aXlX0G-10" vertex="1">
          <mxGeometry y="41" width="300" height="26" as="geometry" />
        </mxCell>
        <mxCell id="MGJPy2t_8Esak-aXlX0G-12" value="RectangleDrawingStrategy" style="swimlane;fontStyle=1;align=center;verticalAlign=top;childLayout=stackLayout;horizontal=1;startSize=26;horizontalStack=0;resizeParent=1;resizeParentMax=0;resizeLast=0;collapsible=1;marginBottom=0;html=1;" parent="1" vertex="1">
          <mxGeometry x="960" y="1126" width="310" height="52" as="geometry" />
        </mxCell>
        <mxCell id="MGJPy2t_8Esak-aXlX0G-13" value="+Draw(canvas:ICanvas, bounds.Rect, color: Color)" style="text;align=left;verticalAlign=top;spacingLeft=4;spacingRight=4;overflow=hidden;rotatable=0;points=[[0,0.5],[1,0.5]];portConstraint=eastwest;fontStyle=0" parent="MGJPy2t_8Esak-aXlX0G-12" vertex="1">
          <mxGeometry y="26" width="310" height="26" as="geometry" />
        </mxCell>
        <mxCell id="MGJPy2t_8Esak-aXlX0G-17" value="" style="endArrow=block;dashed=1;endFill=0;endSize=12;html=1;" parent="1" source="MGJPy2t_8Esak-aXlX0G-27" target="MGJPy2t_8Esak-aXlX0G-25" edge="1">
          <mxGeometry width="160" relative="1" as="geometry">
            <mxPoint x="-30" y="946" as="sourcePoint" />
            <mxPoint x="130" y="946" as="targetPoint" />
          </mxGeometry>
        </mxCell>
        <mxCell id="MGJPy2t_8Esak-aXlX0G-18" value="" style="endArrow=block;dashed=1;endFill=0;endSize=12;html=1;" parent="1" source="MGJPy2t_8Esak-aXlX0G-23" target="MGJPy2t_8Esak-aXlX0G-25" edge="1">
          <mxGeometry width="160" relative="1" as="geometry">
            <mxPoint x="384.6666666666665" y="966" as="sourcePoint" />
            <mxPoint x="495.3333333333335" y="883" as="targetPoint" />
          </mxGeometry>
        </mxCell>
        <mxCell id="MGJPy2t_8Esak-aXlX0G-19" style="edgeStyle=orthogonalEdgeStyle;rounded=0;orthogonalLoop=1;jettySize=auto;html=1;" parent="1" source="MGJPy2t_8Esak-aXlX0G-24" target="MGJPy2t_8Esak-aXlX0G-22" edge="1">
          <mxGeometry relative="1" as="geometry" />
        </mxCell>
        <mxCell id="MGJPy2t_8Esak-aXlX0G-20" style="edgeStyle=orthogonalEdgeStyle;rounded=0;orthogonalLoop=1;jettySize=auto;html=1;" parent="1" source="MGJPy2t_8Esak-aXlX0G-28" target="MGJPy2t_8Esak-aXlX0G-21" edge="1">
          <mxGeometry relative="1" as="geometry">
            <Array as="points">
              <mxPoint x="190" y="955" />
              <mxPoint x="190" y="997" />
              <mxPoint x="290" y="997" />
            </Array>
          </mxGeometry>
        </mxCell>
        <mxCell id="MGJPy2t_8Esak-aXlX0G-21" value="void Draw(ICanvas&amp;amp; canvas, Rect bounds, Color color)&lt;br&gt;{&lt;br&gt;&amp;nbsp; &amp;nbsp; canvas.DrawPolygon(...);&lt;br&gt;}" style="shape=note;whiteSpace=wrap;html=1;size=14;verticalAlign=middle;align=left;spacingTop=-6;fillColor=#ffff88;strokeColor=#36393d;fontFamily=Lucida Console;" parent="1" vertex="1">
          <mxGeometry x="60" y="1030" width="410" height="70" as="geometry" />
        </mxCell>
        <mxCell id="MGJPy2t_8Esak-aXlX0G-22" value="void Draw(ICanvas&amp;amp; canvas, Rect bounds, Color color)&lt;br&gt;{&lt;br&gt;&amp;nbsp; &amp;nbsp; canvas.DrawEllipse(...);&lt;br&gt;}" style="shape=note;whiteSpace=wrap;html=1;size=14;verticalAlign=middle;align=left;spacingTop=-6;fillColor=#ffff88;strokeColor=#36393d;fontFamily=Lucida Console;" parent="1" vertex="1">
          <mxGeometry x="490" y="1026" width="410" height="74" as="geometry" />
        </mxCell>
        <mxCell id="MGJPy2t_8Esak-aXlX0G-23" value="EllipseDrawingStrategy" style="swimlane;fontStyle=1;align=center;verticalAlign=top;childLayout=stackLayout;horizontal=1;startSize=26;horizontalStack=0;resizeParent=1;resizeParentMax=0;resizeLast=0;collapsible=1;marginBottom=0;html=1;fillColor=#d5e8d4;strokeColor=#82b366;" parent="1" vertex="1">
          <mxGeometry x="517" y="916" width="303" height="52" as="geometry" />
        </mxCell>
        <mxCell id="MGJPy2t_8Esak-aXlX0G-24" value="+Draw(canvas:ICanvas, bounds: Rect, color: Color)" style="text;align=left;verticalAlign=top;spacingLeft=4;spacingRight=4;overflow=hidden;rotatable=0;points=[[0,0.5],[1,0.5]];portConstraint=eastwest;fontStyle=0" parent="MGJPy2t_8Esak-aXlX0G-23" vertex="1">
          <mxGeometry y="26" width="303" height="26" as="geometry" />
        </mxCell>
        <mxCell id="MGJPy2t_8Esak-aXlX0G-25" value="&lt;i&gt;&lt;span style=&quot;font-weight: normal&quot;&gt;&amp;lt;&amp;lt;interface&amp;gt;&amp;gt;&lt;/span&gt;&lt;br&gt;IDrawingStrategy&lt;/i&gt;" style="swimlane;fontStyle=1;align=center;verticalAlign=top;childLayout=stackLayout;horizontal=1;startSize=41;horizontalStack=0;resizeParent=1;resizeParentMax=0;resizeLast=0;collapsible=1;marginBottom=0;html=1;fillColor=#d5e8d4;strokeColor=#82b366;" parent="1" vertex="1">
          <mxGeometry x="400" y="729" width="300" height="67" as="geometry" />
        </mxCell>
        <mxCell id="MGJPy2t_8Esak-aXlX0G-26" value="+Draw(canvas:ICanvas, bounds:Rect, color: Color)" style="text;align=left;verticalAlign=top;spacingLeft=4;spacingRight=4;overflow=hidden;rotatable=0;points=[[0,0.5],[1,0.5]];portConstraint=eastwest;fontStyle=2" parent="MGJPy2t_8Esak-aXlX0G-25" vertex="1">
          <mxGeometry y="41" width="300" height="26" as="geometry" />
        </mxCell>
        <mxCell id="MGJPy2t_8Esak-aXlX0G-27" value="RectangleDrawingStrategy" style="swimlane;fontStyle=1;align=center;verticalAlign=top;childLayout=stackLayout;horizontal=1;startSize=26;horizontalStack=0;resizeParent=1;resizeParentMax=0;resizeLast=0;collapsible=1;marginBottom=0;html=1;fillColor=#d5e8d4;strokeColor=#82b366;" parent="1" vertex="1">
          <mxGeometry x="180" y="916" width="310" height="52" as="geometry" />
        </mxCell>
        <mxCell id="MGJPy2t_8Esak-aXlX0G-28" value="+Draw(canvas:ICanvas, bounds.Rect, color: Color)" style="text;align=left;verticalAlign=top;spacingLeft=4;spacingRight=4;overflow=hidden;rotatable=0;points=[[0,0.5],[1,0.5]];portConstraint=eastwest;fontStyle=0" parent="MGJPy2t_8Esak-aXlX0G-27" vertex="1">
          <mxGeometry y="26" width="310" height="26" as="geometry" />
        </mxCell>
        <mxCell id="MGJPy2t_8Esak-aXlX0G-29" value="" style="endArrow=diamondThin;endFill=1;endSize=24;html=1;rounded=0;" parent="1" source="MGJPy2t_8Esak-aXlX0G-25" target="wwB7rLd3d0XcowF-7yqt-38" edge="1">
          <mxGeometry width="160" relative="1" as="geometry">
            <mxPoint x="280" y="750" as="sourcePoint" />
            <mxPoint x="440" y="750" as="targetPoint" />
          </mxGeometry>
        </mxCell>
        <mxCell id="MGJPy2t_8Esak-aXlX0G-30" value="Slide" style="swimlane;fontStyle=1;align=center;verticalAlign=top;childLayout=stackLayout;horizontal=1;startSize=26;horizontalStack=0;resizeParent=1;resizeParentMax=0;resizeLast=0;collapsible=1;marginBottom=0;whiteSpace=wrap;html=1;" parent="1" vertex="1">
          <mxGeometry x="357" y="-20" width="160" height="86" as="geometry" />
        </mxCell>
        <mxCell id="MGJPy2t_8Esak-aXlX0G-35" value="+ Draw(canvas:ICanvas)" style="text;strokeColor=none;fillColor=none;align=left;verticalAlign=top;spacingLeft=4;spacingRight=4;overflow=hidden;rotatable=0;points=[[0,0.5],[1,0.5]];portConstraint=eastwest;whiteSpace=wrap;html=1;" parent="MGJPy2t_8Esak-aXlX0G-30" vertex="1">
          <mxGeometry y="26" width="160" height="26" as="geometry" />
        </mxCell>
        <mxCell id="MGJPy2t_8Esak-aXlX0G-32" value="" style="line;strokeWidth=1;fillColor=none;align=left;verticalAlign=middle;spacingTop=-1;spacingLeft=3;spacingRight=3;rotatable=0;labelPosition=right;points=[];portConstraint=eastwest;strokeColor=inherit;" parent="MGJPy2t_8Esak-aXlX0G-30" vertex="1">
          <mxGeometry y="52" width="160" height="8" as="geometry" />
        </mxCell>
        <mxCell id="MGJPy2t_8Esak-aXlX0G-33" value="- m_shapes:[Shape*]" style="text;strokeColor=none;fillColor=none;align=left;verticalAlign=top;spacingLeft=4;spacingRight=4;overflow=hidden;rotatable=0;points=[[0,0.5],[1,0.5]];portConstraint=eastwest;whiteSpace=wrap;html=1;" parent="MGJPy2t_8Esak-aXlX0G-30" vertex="1">
          <mxGeometry y="60" width="160" height="26" as="geometry" />
        </mxCell>
        <mxCell id="MGJPy2t_8Esak-aXlX0G-34" value="" style="endArrow=diamondThin;endFill=1;endSize=24;html=1;rounded=0;" parent="1" source="wwB7rLd3d0XcowF-7yqt-7" target="MGJPy2t_8Esak-aXlX0G-30" edge="1">
          <mxGeometry width="160" relative="1" as="geometry">
            <mxPoint x="-290" y="230" as="sourcePoint" />
            <mxPoint x="-130" y="230" as="targetPoint" />
          </mxGeometry>
        </mxCell>
        <mxCell id="MGJPy2t_8Esak-aXlX0G-36" value="Use" style="endArrow=open;endSize=12;dashed=1;html=1;rounded=0;" parent="1" source="MGJPy2t_8Esak-aXlX0G-30" target="wwB7rLd3d0XcowF-7yqt-20" edge="1">
          <mxGeometry width="160" relative="1" as="geometry">
            <mxPoint x="660" y="80" as="sourcePoint" />
            <mxPoint x="820" y="80" as="targetPoint" />
          </mxGeometry>
        </mxCell>
        <mxCell id="MGJPy2t_8Esak-aXlX0G-37" value="void Draw(ICanvas&amp;amp; canvas)&lt;br&gt;{&lt;br&gt;&amp;nbsp; for (auto* shape : m_shapes) {&lt;div&gt;&amp;nbsp; &amp;nbsp; shape-&amp;gt;Draw(canvas);&lt;/div&gt;&lt;div&gt;&amp;nbsp; }&lt;br&gt;}&lt;/div&gt;" style="shape=note;whiteSpace=wrap;html=1;size=14;verticalAlign=middle;align=left;spacingTop=-6;fillColor=#ffff88;strokeColor=#36393d;fontFamily=Lucida Console;" parent="1" vertex="1">
          <mxGeometry x="630" y="-20" width="260" height="110" as="geometry" />
        </mxCell>
        <mxCell id="MGJPy2t_8Esak-aXlX0G-38" style="edgeStyle=orthogonalEdgeStyle;rounded=0;orthogonalLoop=1;jettySize=auto;html=1;entryX=0;entryY=0.5;entryDx=0;entryDy=0;entryPerimeter=0;" parent="1" source="MGJPy2t_8Esak-aXlX0G-35" target="MGJPy2t_8Esak-aXlX0G-37" edge="1">
          <mxGeometry relative="1" as="geometry" />
        </mxCell>
        <mxCell id="Bd5nUMI4DjJYG6Nc9AD--1" value="Shape" style="swimlane;fontStyle=1;align=center;verticalAlign=top;childLayout=stackLayout;horizontal=1;startSize=26;horizontalStack=0;resizeParent=1;resizeParentMax=0;resizeLast=0;collapsible=1;marginBottom=0;" vertex="1" parent="1">
          <mxGeometry x="-280" y="1200" width="300" height="300" as="geometry" />
        </mxCell>
        <mxCell id="Bd5nUMI4DjJYG6Nc9AD--2" value="+Shape(drawingStrategy: IDrawingStrategy)" style="text;strokeColor=none;fillColor=none;align=left;verticalAlign=top;spacingLeft=4;spacingRight=4;overflow=hidden;rotatable=0;points=[[0,0.5],[1,0.5]];portConstraint=eastwest;" vertex="1" parent="Bd5nUMI4DjJYG6Nc9AD--1">
          <mxGeometry y="26" width="300" height="26" as="geometry" />
        </mxCell>
        <mxCell id="Bd5nUMI4DjJYG6Nc9AD--3" value="" style="line;strokeWidth=1;fillColor=none;align=left;verticalAlign=middle;spacingTop=-1;spacingLeft=3;spacingRight=3;rotatable=0;labelPosition=right;points=[];portConstraint=eastwest;html=1;" vertex="1" parent="Bd5nUMI4DjJYG6Nc9AD--1">
          <mxGeometry y="52" width="300" height="8" as="geometry" />
        </mxCell>
        <mxCell id="Bd5nUMI4DjJYG6Nc9AD--4" value="+Draw(canvas: ICanvas)" style="text;strokeColor=none;fillColor=none;align=left;verticalAlign=top;spacingLeft=4;spacingRight=4;overflow=hidden;rotatable=0;points=[[0,0.5],[1,0.5]];portConstraint=eastwest;fontStyle=0" vertex="1" parent="Bd5nUMI4DjJYG6Nc9AD--1">
          <mxGeometry y="60" width="300" height="26" as="geometry" />
        </mxCell>
        <mxCell id="Bd5nUMI4DjJYG6Nc9AD--5" value="" style="line;strokeWidth=1;fillColor=none;align=left;verticalAlign=middle;spacingTop=-1;spacingLeft=3;spacingRight=3;rotatable=0;labelPosition=right;points=[];portConstraint=eastwest;" vertex="1" parent="Bd5nUMI4DjJYG6Nc9AD--1">
          <mxGeometry y="86" width="300" height="8" as="geometry" />
        </mxCell>
        <mxCell id="Bd5nUMI4DjJYG6Nc9AD--6" value="+GetBounds(): Rect" style="text;strokeColor=none;fillColor=none;align=left;verticalAlign=top;spacingLeft=4;spacingRight=4;overflow=hidden;rotatable=0;points=[[0,0.5],[1,0.5]];portConstraint=eastwest;" vertex="1" parent="Bd5nUMI4DjJYG6Nc9AD--1">
          <mxGeometry y="94" width="300" height="26" as="geometry" />
        </mxCell>
        <mxCell id="Bd5nUMI4DjJYG6Nc9AD--7" value="+SetBounds(bounds: Rect)" style="text;strokeColor=none;fillColor=none;align=left;verticalAlign=top;spacingLeft=4;spacingRight=4;overflow=hidden;rotatable=0;points=[[0,0.5],[1,0.5]];portConstraint=eastwest;" vertex="1" parent="Bd5nUMI4DjJYG6Nc9AD--1">
          <mxGeometry y="120" width="300" height="26" as="geometry" />
        </mxCell>
        <mxCell id="Bd5nUMI4DjJYG6Nc9AD--8" value="" style="line;strokeWidth=1;fillColor=none;align=left;verticalAlign=middle;spacingTop=-1;spacingLeft=3;spacingRight=3;rotatable=0;labelPosition=right;points=[];portConstraint=eastwest;" vertex="1" parent="Bd5nUMI4DjJYG6Nc9AD--1">
          <mxGeometry y="146" width="300" height="8" as="geometry" />
        </mxCell>
        <mxCell id="Bd5nUMI4DjJYG6Nc9AD--9" value="+GetColor(): Color" style="text;strokeColor=none;fillColor=none;align=left;verticalAlign=top;spacingLeft=4;spacingRight=4;overflow=hidden;rotatable=0;points=[[0,0.5],[1,0.5]];portConstraint=eastwest;" vertex="1" parent="Bd5nUMI4DjJYG6Nc9AD--1">
          <mxGeometry y="154" width="300" height="26" as="geometry" />
        </mxCell>
        <mxCell id="Bd5nUMI4DjJYG6Nc9AD--10" value="+SetColor(newColor: Color)" style="text;strokeColor=none;fillColor=none;align=left;verticalAlign=top;spacingLeft=4;spacingRight=4;overflow=hidden;rotatable=0;points=[[0,0.5],[1,0.5]];portConstraint=eastwest;" vertex="1" parent="Bd5nUMI4DjJYG6Nc9AD--1">
          <mxGeometry y="180" width="300" height="26" as="geometry" />
        </mxCell>
        <mxCell id="Bd5nUMI4DjJYG6Nc9AD--11" value="" style="line;strokeWidth=1;fillColor=none;align=left;verticalAlign=middle;spacingTop=-1;spacingLeft=3;spacingRight=3;rotatable=0;labelPosition=right;points=[];portConstraint=eastwest;html=1;" vertex="1" parent="Bd5nUMI4DjJYG6Nc9AD--1">
          <mxGeometry y="206" width="300" height="8" as="geometry" />
        </mxCell>
        <mxCell id="Bd5nUMI4DjJYG6Nc9AD--12" value="+SetStrategy(strategy: IShapeStrategy)" style="text;strokeColor=#82b366;fillColor=#d5e8d4;align=left;verticalAlign=top;spacingLeft=4;spacingRight=4;overflow=hidden;rotatable=0;points=[[0,0.5],[1,0.5]];portConstraint=eastwest;" vertex="1" parent="Bd5nUMI4DjJYG6Nc9AD--1">
          <mxGeometry y="214" width="300" height="26" as="geometry" />
        </mxCell>
        <mxCell id="Bd5nUMI4DjJYG6Nc9AD--13" value="" style="line;strokeWidth=1;fillColor=none;align=left;verticalAlign=middle;spacingTop=-1;spacingLeft=3;spacingRight=3;rotatable=0;labelPosition=right;points=[];portConstraint=eastwest;html=1;" vertex="1" parent="Bd5nUMI4DjJYG6Nc9AD--1">
          <mxGeometry y="240" width="300" height="8" as="geometry" />
        </mxCell>
        <mxCell id="Bd5nUMI4DjJYG6Nc9AD--15" value="- m_shapeStrategy: IDrawingStrategy" style="text;strokeColor=#82b366;fillColor=#d5e8d4;align=left;verticalAlign=top;spacingLeft=4;spacingRight=4;overflow=hidden;rotatable=0;points=[[0,0.5],[1,0.5]];portConstraint=eastwest;" vertex="1" parent="Bd5nUMI4DjJYG6Nc9AD--1">
          <mxGeometry y="248" width="300" height="26" as="geometry" />
        </mxCell>
        <mxCell id="Bd5nUMI4DjJYG6Nc9AD--16" value="- m_color: Color" style="text;strokeColor=none;fillColor=none;align=left;verticalAlign=top;spacingLeft=4;spacingRight=4;overflow=hidden;rotatable=0;points=[[0,0.5],[1,0.5]];portConstraint=eastwest;" vertex="1" parent="Bd5nUMI4DjJYG6Nc9AD--1">
          <mxGeometry y="274" width="300" height="26" as="geometry" />
        </mxCell>
        <mxCell id="Bd5nUMI4DjJYG6Nc9AD--17" value="&lt;i&gt;&lt;span style=&quot;font-weight: normal&quot;&gt;&amp;lt;&amp;lt;interface&amp;gt;&amp;gt;&lt;/span&gt;&lt;br&gt;IShapeStrategy&lt;/i&gt;" style="swimlane;fontStyle=1;align=center;verticalAlign=top;childLayout=stackLayout;horizontal=1;startSize=41;horizontalStack=0;resizeParent=1;resizeParentMax=0;resizeLast=0;collapsible=1;marginBottom=0;html=1;fillColor=#d5e8d4;strokeColor=#82b366;" vertex="1" parent="1">
          <mxGeometry x="120" y="1200" width="240" height="119" as="geometry" />
        </mxCell>
        <mxCell id="Bd5nUMI4DjJYG6Nc9AD--18" value="+Draw(canvas:ICanvas, color:Color)" style="text;align=left;verticalAlign=top;spacingLeft=4;spacingRight=4;overflow=hidden;rotatable=0;points=[[0,0.5],[1,0.5]];portConstraint=eastwest;fontStyle=2" vertex="1" parent="Bd5nUMI4DjJYG6Nc9AD--17">
          <mxGeometry y="41" width="240" height="26" as="geometry" />
        </mxCell>
        <mxCell id="Bd5nUMI4DjJYG6Nc9AD--39" value="+GetBounds():Rect" style="text;strokeColor=none;fillColor=none;align=left;verticalAlign=top;spacingLeft=4;spacingRight=4;overflow=hidden;rotatable=0;points=[[0,0.5],[1,0.5]];portConstraint=eastwest;whiteSpace=wrap;html=1;fontStyle=2" vertex="1" parent="Bd5nUMI4DjJYG6Nc9AD--17">
          <mxGeometry y="67" width="240" height="26" as="geometry" />
        </mxCell>
        <mxCell id="Bd5nUMI4DjJYG6Nc9AD--40" value="+SetBounds(boudns:Rect)" style="text;strokeColor=none;fillColor=none;align=left;verticalAlign=top;spacingLeft=4;spacingRight=4;overflow=hidden;rotatable=0;points=[[0,0.5],[1,0.5]];portConstraint=eastwest;whiteSpace=wrap;html=1;fontStyle=2" vertex="1" parent="Bd5nUMI4DjJYG6Nc9AD--17">
          <mxGeometry y="93" width="240" height="26" as="geometry" />
        </mxCell>
        <mxCell id="Bd5nUMI4DjJYG6Nc9AD--19" value="EllipseStrategy" style="swimlane;fontStyle=1;align=center;verticalAlign=top;childLayout=stackLayout;horizontal=1;startSize=26;horizontalStack=0;resizeParent=1;resizeParentMax=0;resizeLast=0;collapsible=1;marginBottom=0;whiteSpace=wrap;html=1;" vertex="1" parent="1">
          <mxGeometry x="80" y="1362" width="220" height="216" as="geometry" />
        </mxCell>
        <mxCell id="Bd5nUMI4DjJYG6Nc9AD--37" value="+EllipseStrategy(center, xRad, yRad)" style="text;strokeColor=none;fillColor=none;align=left;verticalAlign=top;spacingLeft=4;spacingRight=4;overflow=hidden;rotatable=0;points=[[0,0.5],[1,0.5]];portConstraint=eastwest;whiteSpace=wrap;html=1;" vertex="1" parent="Bd5nUMI4DjJYG6Nc9AD--19">
          <mxGeometry y="26" width="220" height="26" as="geometry" />
        </mxCell>
        <mxCell id="Bd5nUMI4DjJYG6Nc9AD--35" value="+Draw(canvas:ICanvas, color:Color)" style="text;align=left;verticalAlign=top;spacingLeft=4;spacingRight=4;overflow=hidden;rotatable=0;points=[[0,0.5],[1,0.5]];portConstraint=eastwest;fontStyle=0" vertex="1" parent="Bd5nUMI4DjJYG6Nc9AD--19">
          <mxGeometry y="52" width="220" height="26" as="geometry" />
        </mxCell>
        <mxCell id="Bd5nUMI4DjJYG6Nc9AD--42" value="+GetBounds():Rect" style="text;strokeColor=none;fillColor=none;align=left;verticalAlign=top;spacingLeft=4;spacingRight=4;overflow=hidden;rotatable=0;points=[[0,0.5],[1,0.5]];portConstraint=eastwest;whiteSpace=wrap;html=1;fontStyle=0" vertex="1" parent="Bd5nUMI4DjJYG6Nc9AD--19">
          <mxGeometry y="78" width="220" height="26" as="geometry" />
        </mxCell>
        <mxCell id="Bd5nUMI4DjJYG6Nc9AD--41" value="+SetBounds(boudns:Rect)" style="text;strokeColor=none;fillColor=none;align=left;verticalAlign=top;spacingLeft=4;spacingRight=4;overflow=hidden;rotatable=0;points=[[0,0.5],[1,0.5]];portConstraint=eastwest;whiteSpace=wrap;html=1;fontStyle=0" vertex="1" parent="Bd5nUMI4DjJYG6Nc9AD--19">
          <mxGeometry y="104" width="220" height="26" as="geometry" />
        </mxCell>
        <mxCell id="Bd5nUMI4DjJYG6Nc9AD--21" value="" style="line;strokeWidth=1;fillColor=none;align=left;verticalAlign=middle;spacingTop=-1;spacingLeft=3;spacingRight=3;rotatable=0;labelPosition=right;points=[];portConstraint=eastwest;strokeColor=inherit;" vertex="1" parent="Bd5nUMI4DjJYG6Nc9AD--19">
          <mxGeometry y="130" width="220" height="8" as="geometry" />
        </mxCell>
        <mxCell id="Bd5nUMI4DjJYG6Nc9AD--22" value="- m_center:Point" style="text;strokeColor=none;fillColor=none;align=left;verticalAlign=top;spacingLeft=4;spacingRight=4;overflow=hidden;rotatable=0;points=[[0,0.5],[1,0.5]];portConstraint=eastwest;whiteSpace=wrap;html=1;" vertex="1" parent="Bd5nUMI4DjJYG6Nc9AD--19">
          <mxGeometry y="138" width="220" height="26" as="geometry" />
        </mxCell>
        <mxCell id="Bd5nUMI4DjJYG6Nc9AD--23" value="- m_xRadius:double" style="text;strokeColor=none;fillColor=none;align=left;verticalAlign=top;spacingLeft=4;spacingRight=4;overflow=hidden;rotatable=0;points=[[0,0.5],[1,0.5]];portConstraint=eastwest;whiteSpace=wrap;html=1;" vertex="1" parent="Bd5nUMI4DjJYG6Nc9AD--19">
          <mxGeometry y="164" width="220" height="26" as="geometry" />
        </mxCell>
        <mxCell id="Bd5nUMI4DjJYG6Nc9AD--24" value="- m_yRadius:double" style="text;strokeColor=none;fillColor=none;align=left;verticalAlign=top;spacingLeft=4;spacingRight=4;overflow=hidden;rotatable=0;points=[[0,0.5],[1,0.5]];portConstraint=eastwest;whiteSpace=wrap;html=1;" vertex="1" parent="Bd5nUMI4DjJYG6Nc9AD--19">
          <mxGeometry y="190" width="220" height="26" as="geometry" />
        </mxCell>
        <mxCell id="Bd5nUMI4DjJYG6Nc9AD--26" value="" style="endArrow=diamondThin;endFill=1;endSize=24;html=1;rounded=0;" edge="1" parent="1" source="Bd5nUMI4DjJYG6Nc9AD--17" target="Bd5nUMI4DjJYG6Nc9AD--1">
          <mxGeometry width="160" relative="1" as="geometry">
            <mxPoint x="60" y="1560" as="sourcePoint" />
            <mxPoint x="220" y="1560" as="targetPoint" />
          </mxGeometry>
        </mxCell>
        <mxCell id="Bd5nUMI4DjJYG6Nc9AD--27" value="" style="endArrow=block;dashed=1;endFill=0;endSize=12;html=1;rounded=0;" edge="1" parent="1" source="Bd5nUMI4DjJYG6Nc9AD--19" target="Bd5nUMI4DjJYG6Nc9AD--17">
          <mxGeometry width="160" relative="1" as="geometry">
            <mxPoint x="180" y="1300" as="sourcePoint" />
            <mxPoint x="340" y="1300" as="targetPoint" />
          </mxGeometry>
        </mxCell>
        <mxCell id="Bd5nUMI4DjJYG6Nc9AD--28" value="TriangleStrategy" style="swimlane;fontStyle=1;align=center;verticalAlign=top;childLayout=stackLayout;horizontal=1;startSize=26;horizontalStack=0;resizeParent=1;resizeParentMax=0;resizeLast=0;collapsible=1;marginBottom=0;whiteSpace=wrap;html=1;" vertex="1" parent="1">
          <mxGeometry x="320" y="1362" width="220" height="164" as="geometry" />
        </mxCell>
        <mxCell id="Bd5nUMI4DjJYG6Nc9AD--38" value="+TriangleStrategy&lt;span style=&quot;background-color: transparent; color: light-dark(rgb(0, 0, 0), rgb(255, 255, 255));&quot;&gt;(vertices)&lt;/span&gt;" style="text;strokeColor=none;fillColor=none;align=left;verticalAlign=top;spacingLeft=4;spacingRight=4;overflow=hidden;rotatable=0;points=[[0,0.5],[1,0.5]];portConstraint=eastwest;whiteSpace=wrap;html=1;" vertex="1" parent="Bd5nUMI4DjJYG6Nc9AD--28">
          <mxGeometry y="26" width="220" height="26" as="geometry" />
        </mxCell>
        <mxCell id="Bd5nUMI4DjJYG6Nc9AD--36" value="+Draw(canvas:ICanvas, color:Color)" style="text;align=left;verticalAlign=top;spacingLeft=4;spacingRight=4;overflow=hidden;rotatable=0;points=[[0,0.5],[1,0.5]];portConstraint=eastwest;fontStyle=0" vertex="1" parent="Bd5nUMI4DjJYG6Nc9AD--28">
          <mxGeometry y="52" width="220" height="26" as="geometry" />
        </mxCell>
        <mxCell id="Bd5nUMI4DjJYG6Nc9AD--44" value="+GetBounds():Rect" style="text;strokeColor=none;fillColor=none;align=left;verticalAlign=top;spacingLeft=4;spacingRight=4;overflow=hidden;rotatable=0;points=[[0,0.5],[1,0.5]];portConstraint=eastwest;whiteSpace=wrap;html=1;fontStyle=0" vertex="1" parent="Bd5nUMI4DjJYG6Nc9AD--28">
          <mxGeometry y="78" width="220" height="26" as="geometry" />
        </mxCell>
        <mxCell id="Bd5nUMI4DjJYG6Nc9AD--43" value="+SetBounds(boudns:Rect)" style="text;strokeColor=none;fillColor=none;align=left;verticalAlign=top;spacingLeft=4;spacingRight=4;overflow=hidden;rotatable=0;points=[[0,0.5],[1,0.5]];portConstraint=eastwest;whiteSpace=wrap;html=1;fontStyle=0" vertex="1" parent="Bd5nUMI4DjJYG6Nc9AD--28">
          <mxGeometry y="104" width="220" height="26" as="geometry" />
        </mxCell>
        <mxCell id="Bd5nUMI4DjJYG6Nc9AD--30" value="" style="line;strokeWidth=1;fillColor=none;align=left;verticalAlign=middle;spacingTop=-1;spacingLeft=3;spacingRight=3;rotatable=0;labelPosition=right;points=[];portConstraint=eastwest;strokeColor=inherit;" vertex="1" parent="Bd5nUMI4DjJYG6Nc9AD--28">
          <mxGeometry y="130" width="220" height="8" as="geometry" />
        </mxCell>
        <mxCell id="Bd5nUMI4DjJYG6Nc9AD--31" value="- m_vertices:Point[3]" style="text;strokeColor=none;fillColor=none;align=left;verticalAlign=top;spacingLeft=4;spacingRight=4;overflow=hidden;rotatable=0;points=[[0,0.5],[1,0.5]];portConstraint=eastwest;whiteSpace=wrap;html=1;" vertex="1" parent="Bd5nUMI4DjJYG6Nc9AD--28">
          <mxGeometry y="138" width="220" height="26" as="geometry" />
        </mxCell>
        <mxCell id="Bd5nUMI4DjJYG6Nc9AD--34" value="" style="endArrow=block;dashed=1;endFill=0;endSize=12;html=1;rounded=0;" edge="1" parent="1" source="Bd5nUMI4DjJYG6Nc9AD--28" target="Bd5nUMI4DjJYG6Nc9AD--17">
          <mxGeometry width="160" relative="1" as="geometry">
            <mxPoint x="180" y="1300" as="sourcePoint" />
            <mxPoint x="340" y="1300" as="targetPoint" />
          </mxGeometry>
        </mxCell>
      </root>
    </mxGraphModel>
  </diagram>
</mxfile>
